<svg width="375" height="812" viewBox="0 0 375 812" fill="none" xmlns="http://www.w3.org/2000/svg">
<path d="M-120 -65C-120 -68.866 -116.866 -72 -113 -72H436C439.866 -72 443 -68.866 443 -65V235.068C443 238.99 437.491 239.858 436.285 236.126V236.126C406.994 145.474 297.095 110.709 220.997 168.023L140.082 228.966V228.966C66.0062 278.664 -27.2773 290.204 -111.23 260.057L-119.49 257.091C-119.796 256.981 -120 256.691 -120 256.365V-65Z" fill="#625B71"/>
<path d="M458.047 1005.5C457.769 1009.36 454.418 1012.26 450.562 1011.98L-97.0181 972.52C-100.874 972.243 -103.775 968.891 -103.497 965.035L-81.9302 665.743C-81.6484 661.832 -76.0912 661.362 -75.1568 665.171V665.171C-52.457 757.694 54.6595 800.268 134.68 748.571L219.766 693.601V693.601C297.222 649.356 391.094 644.55 472.663 680.653L480.688 684.205C480.985 684.337 481.168 684.641 481.144 684.965L458.047 1005.5Z" fill="#625B71"/>
</svg>
